# xmcd CD database file
#
# Track frame offsets:
#	150
#	25067
#	53777
#	71462
#	85732
#	110982
#	135290
#	160407
#
# Disc length: 2388 seconds
#
# Revision: 0
# Processed by: cddbd v1.4PL0 Copyright (c) Steve Scherf et al.
# Submitted via: CDex 1.51
#
DISCID=63095208
DTITLE=HAMPTON HAWES - The Green Leaves Of Summer
DYEAR=1964
DGENRE=Jazz
TTITLE0=Vierd Blues
TTITLE1=The Green Leaves Of Summer
TTITLE2=Ill Wind
TTITLE3=St. Thomas
TTITLE4=Secret Love
TTITLE5=Blue Skies
TTITLE6=The More I See You
TTITLE7=G.K. Blues
EXTD=YEAR: 1964
EXTT0=
EXTT1=
EXTT2=
EXTT3=
EXTT4=
EXTT5=
EXTT6=
EXTT7=
PLAYORDER=
